<svg preserveAspectRatio="none" width="100%" height="100%" overflow="visible" style="display: block;" viewBox="0 0 18 17" fill="none" xmlns="http://www.w3.org/2000/svg">
<path id="Star 1" d="M7.38188 1.02006C7.80887 -0.00655127 9.26348 -0.00655168 9.69047 1.02006L11.1778 4.59526C11.2857 4.85481 11.5294 5.03261 11.8096 5.05522L15.67 5.36479C16.7782 5.45364 17.2281 6.83674 16.3838 7.5601L13.4424 10.0787C13.2288 10.2616 13.136 10.5492 13.2012 10.8228L14.0997 14.5894C14.3576 15.6709 13.1804 16.5254 12.2315 15.9458L8.9268 13.9273C8.68701 13.7811 8.38534 13.7811 8.14555 13.9273L4.84086 15.9458C3.89199 16.5254 2.71471 15.6709 2.9727 14.5894L3.87114 10.8228C3.93639 10.5492 3.84352 10.2616 3.62993 10.0787L0.688519 7.5601C-0.155745 6.83674 0.294119 5.45364 1.40239 5.36479L5.26274 5.05522C5.54291 5.03261 5.78662 4.85481 5.89457 4.59526L7.38188 1.02006Z" fill="var(--fill-0, #FFF94E)" stroke="var(--stroke-0, black)" stroke-width="0.5"/>
</svg>
